{"title":"Rock Legends The Best  from The Ed Sullivan Show (vol 1) 2Lions-","uid":5661743,"size":2601990633,"categoryP":"video","categoryS":"music_videos","magnet":"?xt=urn:btih:c17a4a76522a8a92ddd228e699a91a2bcdf3aa96&amp;dn=Rock+Legends+The+Best++from+The+Ed+Sullivan+Show+%28vol+1%29+2Lions-&amp;tr=udp%3A%2F%2Ftracker.openbittorrent.com%3A80&amp;tr=udp%3A%2F%2Fopen.demonii.com%3A1337&amp;tr=udp%3A%2F%2Ftracker.coppersurfer.tk%3A6969&amp;tr=udp%3A%2F%2Fexodus.desync.com%3A6969","seeders":5,"leechers":2,"uploader":"Pioen","files":-1,"time":1277999459,"description":"Rock Legends The Best Of 50s 60s 70s from The Ed Sullivan Show vol.1       \n \n\n\n\n\n\nTracklist :\n\n01. The Beatles - All My Loving (1964)\n02. Elvis presley - Heartbreak Hotel (1957)\n03. The Doors - People Are Strange (1967)\n04. Diana Ross &amp; The Supremes - I'm Living In Shame (1967)\n05. Creedence Clearwater Revival - Fortunate Son (1969)\n06. The Beach Boys - Wendy (1964)\n07. The Animals - Don't Let Me Be Misunderstood (1965)\n08. The Rolling Stones - (I Can't Get No) Satisfaction (1966)\n09. The Animals - Bring It On Home (1965)\n10. Jerry Lee Lewis - Whole Lo Of Shakin' Goin' On (1969)\n11. Elvis Presley - Hound Dog (1956)\n12. James Brown - Papa's Got A Brand New Bag / I Got You (1966)\n13. The Temptations - Don't Look Back (1967)\n14. Buddy Holly &amp; The Crickets - Peggy Sue (1957)\n15. Jerry Lee Lewis - What'd I Say (1969)\n16. Fats Domino - Blueberry Hill (1956)\n17. Diana Ross &amp; The Supremes - Forever Came Today (1968)\n18. Bill Haley &amp; His Comets - Rock Around The Clock (1955)\n19. Elvis Presley - Don's Be Cruel (1956)\n\n\n\nDVD Features:\nMenu: Ja\nAvailable Audio Tracks : DD 2.0\nMain Language: Engels\nDisc Format: DVD 5\nCover : Nee \nVideo\nID                               : 224 (0xE0)\nFormat                           : MPEG Video\nFormat version                   : Version 2\nFormat profile                   : Main@Main\nFormat settings, Matrix          : Default\nDuration                         : 20mn 14s\nBit rate mode                    : Variable\nBit rate                         : 6 536 Kbps\nNominal bit rate                 : 8 000 Kbps\nWidth                            : 720 pixels\nHeight                           : 576 pixels\nDisplay aspect ratio             : 4/3\nFrame rate                       : 25.000 fps\nStandard                         : PAL\nColorimetry                      : 4:2:0\nScan type                        : Interlaced\nScan order                       : Top Field First\nBits/(Pixel*Frame)               : 0.630\nStream size                      : 946 MiB (92%)\n\nAudio\nID                               : 128 (0x80)\nFormat                           : AC-3\nFormat/Info                      : Audio Coding 3\nDuration                         : 20mn 14s\nBit rate mode                    : Constant\nBit rate                         : 256 Kbps\nChannel(s)                       : 2 channels\nChannel positions                : L R\nSampling rate                    : 48.0 KHz\nVideo delay                      : -768ms\nStream size                      : 37.1 MiB (4%)\n \nSpotinformatie \nCategorie : Beeld \nFormaat : DVD5 \nBron : Retail\n \nOndertitels : Geen\n \nGenre : Muziek \n\n*****************************************\n\nBrought to you by \nPioen\n\n2Lions Team\n\nmeer zien??\nKom dan eens kijken op ons forum \n\n\n\n\n2Lions the site to be for all your Dutch MOVIES and more\n\n******************************************\n\n\nDON T HIT AND RUN Niet gelijk afhaken als de FILM binnen is blijf seeden. \n\nDon`t quit after you finished the download, but keep seeding\n\n\nThere are fake torrents from uploaders who use our team name.\nThose are not ours, or members from our team.\nWe 2Lions-Team are not responsible for the fake posts on our name\n\nWij 2Lions-Team zijn niet verantwoordelijk voor die zieke FAKE posten die op onze naam worden gedaan\n \n\n","torrent":{"xt":"urn:btih:c17a4a76522a8a92ddd228e699a91a2bcdf3aa96","amp;dn":"Rock+Legends+The+Best++from+The+Ed+Sullivan+Show+%28vol+1%29+2Lions-","amp;tr":["udp%3A%2F%2Ftracker.openbittorrent.com%3A80","udp%3A%2F%2Fopen.demonii.com%3A1337","udp%3A%2F%2Ftracker.coppersurfer.tk%3A6969","udp%3A%2F%2Fexodus.desync.com%3A6969"],"infoHash":"c17a4a76522a8a92ddd228e699a91a2bcdf3aa96","infoHashBuffer":{"type":"Buffer","data":[193,122,74,118,82,42,138,146,221,210,40,230,153,169,26,43,205,243,170,150]},"announce":[],"urlList":[]}}